<?xml version="1.0" encoding="UTF-8"?>
<svg width="128pt" height="128pt" version="1.1" viewBox="0 0 128 128" xmlns="http://www.w3.org/2000/svg">
 <path d="m112 17.742h-19.801c-2.6523 0.066406-2.6133 3.9492 0 4h19.801c2.207 0 4 1.793 4 4v27.238l-13.773-13.773c-2.9727-2.9766-7.7812-3.125-10.938-0.33594l-21.887 19.367-12.285-12.301c-2.9805-2.9805-7.7891-3.1328-10.945-0.33203l-21.953 19.441v-39.305c0-2.207 1.793-4 4-4h55.98c2.6016-0.019532 2.6445-3.9648 0-4h-55.98c-4.4102 0-8 3.5898-8 8v4.2422h-4.8984c-4.0352 0-7.3203 3.2812-7.3203 7.3203v43.281c0.0625 2.625 3.9414 2.6367 4 0v-43.281c0-1.832 1.4883-3.3203 3.3203-3.3203h4.8984v56.059c0 4.4102 3.5898 8 8 8h75.559v4.9023c0 1.832-1.4883 3.3203-3.3203 3.3203l-85.137-0.003906c-1.832 0-3.3203-1.4883-3.3203-3.3203v-14.359c-0.03125-2.6367-3.9688-2.6172-4 0v14.359c0 4.0352 3.2852 7.3203 7.3203 7.3203h85.141c4.0352 0 7.3203-3.2812 7.3203-7.3203v-4.9023h4.2188c4.4102 0 8-3.5898 8-8v-64.297c0-4.4102-3.5898-8-8-8zm0 76.301-83.781-0.003907c-2.207 0-4-1.793-4-4v-19.656l24.602-21.789c1.5781-1.3945 3.9766-1.3203 5.4648 0.16797l12.113 12.129-9.3242 8.25c-1.3867 1.1445-0.44141 3.5625 1.3281 3.4961 0.46875 0 0.94531-0.16406 1.3242-0.5l34.211-30.27c1.5703-1.3906 3.9727-1.3203 5.457 0.16797l16.602 16.602v31.406c0 2.207-1.793 4-4 4z" fill="#1f1f1f"/>
 <path d="m61.555 36.789c0.35937 11.312 16.762 11.309 17.117 0-0.35938-11.309-16.758-11.309-17.117 0zm13.117 0c-0.15625 6.0117-8.9609 6.0117-9.1172 0 0.15625-6.0117 8.9609-6.0078 9.1172 0z" fill="#1f1f1f"/>
</svg>
