<?xml version="1.0" encoding="UTF-8"?>
<svg width="128pt" height="128pt" version="1.1" viewBox="0 0 128 128" xmlns="http://www.w3.org/2000/svg">
 <path d="m118.7 42.246c-0.61328-3.8242-6.2969-3.0469-5.8398 0.80859 0.81641 5.8711 1.2305 12.102 1.2305 18.516 0 27.598-7.625 45.215-12.871 45.215-6.9258-1.6094-10.75-17.754-12.234-31.828 8.1016 0.875 15.582-5.0312 15.531-13.379-0.011719-8.4141-7.3633-14.23-15.531-13.398 1.9453-21.656 12.172-49.555 21.625-16.34 0.42188 1.5742 2.0391 2.5 3.6094 2.0859 1.5742-0.42188 2.5039-2.0391 2.0859-3.6094-3.4297-12.816-8.7891-19.871-15.09-19.871-2.3438 0-4.6719 1.0234-6.7266 2.9688-14.957 14.199-33.629 19.914-53.406 25.965-2.2344 0.89453-9.0312 0.39844-11.414 0.51953-5.7812 0-11.23 2.25-15.352 6.3438-13.816 13.891-3.4219 36.691 15.773 36.949l8.4805 27.797c2.9883 10.488 18.32 7.6758 17.375-3.2344l-3.1484-24.754c-0.12891-0.80859-0.55859-1.5859-1.2539-2.0469-2.9844-1.3164-6.3359-2.0859-9.4844-3.0586-4.6484-10.586-4.6445-22.102 0.003906-32.684 16.066-4.8047 31.523-9.5938 45.164-18.57-6.3789 19.859-6.4062 49.926-0.023438 69.816-8.7617-5.7812-17.68-9.4258-25.098-12.09-3.6602-1.25-5.6211 4.1797-1.9883 5.5508 15.066 5.4102 25.664 11.516 34.375 19.797 23.352 16.68 28.301-45.621 24.211-67.461zm-104.82 19.184c-0.078125-8.4688 7.3633-15.801 15.801-15.637h5.8047c-3.7461 10.301-3.7461 21.219-0.003906 31.52h-5.1562c-8.4219 0.19141-16.699-7.3633-16.445-15.887zm33.32 24.188 2.9062 22.832c0.28906 3.6367-4.9141 4.5664-5.8516 0.94141l-7.9883-26.184c3.7734-0.30859 7.375 1.4102 10.93 2.4102zm51.422-24.043c0.085937 4.0195-3.4648 7.5664-7.4844 7.4844h-2.5703c-0.28516-5.0898-0.28516-9.8984 0-14.988h2.5703c4.125 0 7.4844 3.3633 7.4844 7.5039z" fill="#1f1f1f"/>
</svg>
