<?xml version="1.0" encoding="UTF-8"?>
<svg width="128pt" height="128pt" version="1.1" viewBox="0 0 128 128" xmlns="http://www.w3.org/2000/svg">
 <path d="m64 100.52c1.6562 0 3-1.3438 3-3v-1.6719c4.3047-1.3008 7.4688-5.2539 7.4688-9.9766 0-5.7695-4.6953-10.469-10.469-10.469-2.4648 0-4.4688-2.0039-4.4688-4.4688 0.10547-5.5781 8.2031-6.0352 8.9102-0.48438 0.47656 3.9102 6.3242 3.2852 5.9648-0.64453-0.46094-4.2852-3.4648-7.6797-7.4062-8.8555v-1.6562c0-1.6562-1.3438-3-3-3s-3 1.3438-3 3v1.6719c-11.395 3.5664-9.0391 20.23 3 20.445 2.4648 0 4.4688 2.0039 4.4688 4.4688-0.12109 5.6797-8.3789 5.9844-8.9258 0.32812-0.12109-1.6484-1.5586-2.8867-3.2109-2.7734-1.6484 0.12109-2.8945 1.5586-2.7734 3.2109 0.32031 4.3945 3.3945 7.9805 7.4414 9.2109v1.6719c0 1.6562 1.3438 3 3 3z" fill="#1f1f1f"/>
 <path d="m105.14 86.711c-0.30078-3.9648-6.1211-3.6133-5.9883 0.30469 1.4297 15.77-6.3984 27.293-35.234 27.988-23.555 0.20312-31.926-10.301-34.234-16.445-4.7266-26.25 10.426-58.262 30.539-56.754h7c6.4141-0.30469 12.82 2.0547 17.141 6.6953 4.5859 4.8789 10.625 13.496 13.371 26.832 0.83984 3.8398 6.6133 2.6758 5.875-1.2109-3.9492-17.496-12.301-30.48-23.422-35.789l10.465-15.785c1.1055-1.4336 1.5117-3.2617 1.1094-5.0312-1.3281-6.2266-11.18-5.8984-14.594-4.5117-4.5352-6.0859-11.691-6.0352-13.039-5.9805-7.1094-0.21484-11.203 3.3047-13.234 5.8047-7.9062-2.8594-18.586 1.8984-13.488 9.8633l10.555 15.574c-15.41 6.6992-29.684 35.66-23.855 62.496 2.1211 6.1211 12.273 20.723 40.305 20.246 32.434-0.38672 42.742-16.895 40.734-34.289zm-62.844-67.492c-0.054688-0.078125-0.13672-0.21094-0.19922-0.28516 2.6016-1.3398 5.4961-1.25 8.5898 0.27344 1.4883 0.73047 3.3008 0.085938 4.0312-1.3945-0.035156-0.18359 3.1211-5.2852 9.6758-4.8086 0.24609-0.011718 6.1289-0.35938 8.8633 5.0469 0.71094 1.4648 2.6406 2.0742 4.0703 1.3047 0.046875-0.023438 4.7344-2.3984 8.5586-0.47656-0.19141 0.375-11.434 17.137-11.609 17.488-1.0859-0.22656-2.1914-0.36328-3.3047-0.45313l1.1016-4.625c0.84375-3.8555-4.8594-5.2109-5.8398-1.3867l-1.3984 5.8945h-2.5859l-2.5781-8.3867c-1.2188-3.7539-6.8281-2.0195-5.7344 1.7656l2.1055 6.8438c-0.71484 0.085938-1.4297 0.19141-2.1367 0.32812l-11.605-17.129z" fill="#1f1f1f"/>
</svg>
