<?xml version="1.0" encoding="UTF-8"?>
<svg width="128pt" height="128pt" version="1.1" viewBox="0 0 128 128" xmlns="http://www.w3.org/2000/svg">
 <path d="m117.05 36.133c1.625 0 2.9453-1.3203 2.9453-2.9453v-5.1914c0-4.875-3.9648-8.8398-8.8398-8.8398h-94.32c-4.875 0-8.8398 3.9648-8.8398 8.8398v53.719c0 4.875 3.9648 8.8398 8.8398 8.8398h94.316c4.875 0 8.8398-3.9648 8.8398-8.8398v-36.746c-0.085938-3.8789-5.8203-3.875-5.8945 0v36.746c0 1.625-1.3203 2.9453-2.9453 2.9453l-94.316 0.003906c-1.625 0-2.9453-1.3203-2.9453-2.9453v-53.727c0-1.625 1.3203-2.9453 2.9453-2.9453h94.316c1.625 0 2.9453 1.3203 2.9453 2.9453v5.1914c0 1.625 1.3203 2.9453 2.9453 2.9453z" fill="#1f1f1f"/>
 <path d="m77.711 50.785-17.676-11.906c-3.0898-2.2305-7.7812 0.26172-7.6562 4.0742v23.812c-0.12109 3.8086 4.5547 6.3047 7.6562 4.0742l17.676-11.906c2.8555-1.8047 2.8594-6.3438 0-8.1484zm-19.434 14.129v-20.113l14.934 10.055z" fill="#1f1f1f"/>
 <path d="m106.05 98.582h-62.383c-1.6289 0-2.9453 1.3203-2.9453 2.9453s1.3203 2.9453 2.9453 2.9453h62.383c3.8555-0.058594 3.8906-5.8242 0-5.8945z" fill="#1f1f1f"/>
 <path d="m31.875 94.18c-1.6289 0-2.9453 1.3203-2.9453 2.9453v1.4531h-6.9531c-3.8711 0.066406-3.875 5.8281 0 5.8945h6.9531v1.4609c0.066406 3.8711 5.8281 3.875 5.8945 0v-8.8086c0-1.625-1.3203-2.9453-2.9453-2.9453z" fill="#1f1f1f"/>
</svg>
