<?xml version="1.0" encoding="UTF-8"?>
<svg width="128pt" height="128pt" version="1.1" viewBox="0 0 128 128" xmlns="http://www.w3.org/2000/svg">
 <path d="m45.594 45.602c-10.121 10.145-10.121 26.656 0.003906 36.805 12.16 12.586 34.422 8.8242 41.781-7 1.6484-3.5859-3.6289-6.1289-5.4062-2.6055-5.6719 12.16-22.789 15.039-32.133 5.3633-17.965-19.609 8.7109-46.273 28.309-28.324 3.3438 3.3594 5.3984 7.8047 5.8008 12.516 0.38672 3.9258 6.2461 3.4297 5.9805-0.5-1.6445-21.84-28.922-31.84-44.336-16.25z" fill="#1f1f1f"/>
 <path d="m117.62 64.801-9.0703-5.2344c-0.48047-4.8633-1.7344-9.5586-3.7461-14.004l5.2344-9.0586c1.5234-2.6406 1.0859-5.9844-1.0703-8.1367l-9.3281-9.3281c-2.1562-2.1562-5.5-2.5938-8.1367-1.0703l-9.0586 5.2344c-4.4414-2.0117-9.1406-3.2656-14.004-3.7461l-5.2344-9.0703c-1.5195-2.6406-4.6406-3.9297-7.5781-3.1406l-12.746 3.4141c-2.9453 0.78906-4.9961 3.4648-4.9961 6.5117v10.461c-3.9453 2.8359-7.4297 6.3164-10.262 10.262h-10.461c-3.0469 0-5.7188 2.0547-6.5117 4.9961l-3.4141 12.75c-0.78516 2.9414 0.50391 6.0586 3.1406 7.5781l9.0703 5.2344c0.48047 4.8633 1.7344 9.5586 3.7461 14.004l-5.2344 9.0586c-1.5234 2.6406-1.0859 5.9844 1.0703 8.1367l9.3281 9.3281c2.1562 2.1562 5.5 2.5938 8.1367 1.0703l9.0586-5.2344c4.4414 2.0117 9.1406 3.2656 14.004 3.7461l5.2344 9.0703c1.5195 2.6562 4.6953 3.9297 7.5781 3.1406l12.75-3.4141c2.9414-0.78906 4.9961-3.4648 4.9961-6.5117v-10.461c3.9453-2.8359 7.4219-6.3164 10.262-10.262h10.461c3.0469 0 5.7188-2.0508 6.5117-4.9961l3.4141-12.75c0.78516-2.9414-0.50391-6.0586-3.1406-7.5781zm-6.0703 18.773c-0.085938 0.32422-0.37891 0.55078-0.71484 0.55078h-12.031c-1.0039 0-1.9414 0.5-2.5 1.3398-2.8516 4.2891-6.5703 8.0039-10.855 10.855-0.83594 0.55469-1.3398 1.4961-1.3398 2.4961v12.031c0 0.33594-0.22656 0.62891-0.55078 0.71484l-12.746 3.4141c-0.32422 0.089844-0.66406-0.054687-0.82812-0.34375l-6.0195-10.434c-0.50391-0.87109-1.4102-1.4297-2.4102-1.4961-5.1836-0.32422-10.172-1.6562-14.809-3.9609-0.89844-0.44531-1.9648-0.41406-2.8359 0.089843l-10.426 6.0195c-0.28906 0.16406-0.65625 0.12109-0.89062-0.11328l-9.3359-9.3359c-0.23438-0.23438-0.28516-0.60156-0.11328-0.89062l6.0195-10.426c0.50391-0.87109 0.53516-1.9336 0.089843-2.8359-2.3047-4.6406-3.6367-9.6211-3.9609-14.809-0.058594-1.0039-0.625-1.9102-1.4961-2.4102l-10.434-6.0195c-0.28906-0.16406-0.42969-0.51172-0.34375-0.82812l3.4141-12.746c0.085938-0.32422 0.37891-0.55078 0.71484-0.55078h12.031c1.0039 0 1.9414-0.5 2.5-1.3398 2.8438-4.2852 6.5703-8.0117 10.855-10.855 0.83594-0.55469 1.3398-1.4961 1.3398-2.5v-12.031c0-0.33594 0.22656-0.625 0.55078-0.71484l12.746-3.4141c0.32422-0.089844 0.66406 0.054688 0.82812 0.34375l6.0195 10.434c0.50391 0.87109 1.4102 1.4297 2.4102 1.4961 5.1914 0.32422 10.172 1.6562 14.805 3.9609 0.89844 0.44531 1.9609 0.41406 2.8359-0.089844l10.426-6.0195c0.28906-0.16406 0.65625-0.12109 0.89062 0.11328l9.3359 9.3359c0.23438 0.23438 0.28516 0.60156 0.11328 0.89062l-6.0195 10.426c-0.50391 0.87109-0.53516 1.9336-0.089843 2.8359 2.3047 4.6406 3.6367 9.6211 3.9609 14.805 0.058594 1.0039 0.625 1.9102 1.4961 2.4102l10.434 6.0195c0.28906 0.16406 0.42969 0.51172 0.34375 0.82812l-3.4141 12.746z" fill="#1f1f1f"/>
</svg>
