<svg width="32" height="32" viewBox="0 0 32 32" fill="none" xmlns="http://www.w3.org/2000/svg">
<rect width="32" height="32" fill="#CBB29D"/>
<path d="M12.5173 23.047C10.5931 23.047 8.82702 22.621 7.21911 21.7691C5.6112 20.9172 4.33278 19.702 3.38386 18.1235C2.46128 16.545 2 14.6783 2 12.5235C2 10.3687 2.46128 8.51454 3.38386 6.96107C4.33278 5.38255 5.6112 4.16734 7.21911 3.31543C8.82702 2.43848 10.5931 2 12.5173 2C14.4679 2 16.0758 2.37584 17.341 3.12752C18.6063 3.87919 19.5552 5.03177 20.1878 6.58523C20.8204 8.11365 21.1367 10.0931 21.1367 12.5235C21.1367 14.9289 20.7941 16.9083 20.1087 18.4617C19.4498 19.9902 18.4745 21.1427 17.1829 21.9195C15.9176 22.6711 14.3624 23.047 12.5173 23.047ZM14.0988 17.3718C14.9423 17.3718 15.6936 17.1839 16.3526 16.8081C17.0379 16.4322 17.5783 15.881 17.9736 15.1544C18.3954 14.4277 18.6063 13.5508 18.6063 12.5235C18.6063 11.4962 18.3954 10.6192 17.9736 9.89262C17.5783 9.16599 17.0379 8.61476 16.3526 8.23893C15.6936 7.86309 14.9423 7.67517 14.0988 7.67517C13.2554 7.67517 12.4909 7.86309 11.8056 8.23893C11.1466 8.61476 10.6063 9.16599 10.1845 9.89262C9.78913 10.6192 9.59143 11.4962 9.59143 12.5235C9.59143 13.5508 9.78913 14.4277 10.1845 15.1544C10.6063 15.881 11.1466 16.4322 11.8056 16.8081C12.4909 17.1839 13.2554 17.3718 14.0988 17.3718ZM18.4876 30V19.2886L18.883 12.5235L18.8435 5.79597V2.33825H26V30H18.4876Z" fill="#2C3E50"/>
<path d="M13 11L17 13L13 15V11Z" fill="#2C3E50"/>
</svg>
