<svg width="128" height="128" viewBox="0 0 128 128" fill="none" xmlns="http://www.w3.org/2000/svg">
<rect width="128" height="128" fill="#CBB29D"/>
<path d="M50.0692 92.1879C42.3723 92.1879 35.3081 90.4841 28.8764 87.0765C22.4448 83.6689 17.3311 78.808 13.5354 72.494C9.84514 66.1799 8 58.7132 8 50.094C8 41.4747 9.84514 34.0582 13.5354 27.8443C17.3311 21.5302 22.4448 16.6693 28.8764 13.2617C35.3081 9.75391 42.3723 8 50.0692 8C57.8715 8 64.3031 9.50335 69.3641 12.5101C74.425 15.5168 78.2208 20.1271 80.7512 26.3409C83.2817 32.4546 84.547 40.3723 84.547 50.094C84.547 59.7154 83.1763 67.6331 80.4349 73.847C77.799 79.9606 73.8979 84.5709 68.7315 87.6779C63.6705 90.6846 57.4498 92.1879 50.0692 92.1879ZM56.3954 69.4872C59.7694 69.4872 62.7743 68.7356 65.4102 67.2322C68.1516 65.7289 70.313 63.5239 71.8946 60.6174C73.5816 57.711 74.425 54.2031 74.425 50.094C74.425 45.9848 73.5816 42.477 71.8946 39.5705C70.313 36.664 68.1516 34.4591 65.4102 32.9557C62.7743 31.4523 59.7694 30.7007 56.3954 30.7007C53.0214 30.7007 49.9638 31.4523 47.2224 32.9557C44.5865 34.4591 42.425 36.664 40.7381 39.5705C39.1565 42.477 38.3657 45.9848 38.3657 50.094C38.3657 54.2031 39.1565 57.711 40.7381 60.6174C42.425 63.5239 44.5865 65.7289 47.2224 67.2322C49.9638 68.7356 53.0214 69.4872 56.3954 69.4872ZM73.9506 120V77.1544L75.5321 50.094L75.374 23.1839V9.35301H104V120H73.9506Z" fill="#2C3E50"/>
<path d="M52 44L68 52L52 60V44Z" fill="#2C3E50"/>
</svg>
