<svg width="16" height="16" viewBox="0 0 16 16" fill="none" xmlns="http://www.w3.org/2000/svg">
<rect width="16" height="16" fill="#CBB29D"/>
<path d="M6.25865 11.5235C5.29654 11.5235 4.41351 11.3105 3.60956 10.8846C2.8056 10.4586 2.16639 9.85101 1.69193 9.06174C1.23064 8.27248 1 7.33915 1 6.26174C1 5.18434 1.23064 4.25727 1.69193 3.48054C2.16639 2.69127 2.8056 2.08367 3.60956 1.65772C4.41351 1.21924 5.29654 1 6.25865 1C7.23394 1 8.03789 1.18792 8.67051 1.56376C9.30313 1.9396 9.7776 2.51588 10.0939 3.29262C10.4102 4.05682 10.5684 5.04653 10.5684 6.26174C10.5684 7.46443 10.397 8.45414 10.0544 9.23087C9.72488 9.99508 9.23723 10.5714 8.59143 10.9597C7.95881 11.3356 7.18122 11.5235 6.25865 11.5235ZM7.04942 8.68591C7.47117 8.68591 7.84679 8.59195 8.17628 8.40403C8.51895 8.21611 8.78913 7.94049 8.98682 7.57718C9.19769 7.21387 9.30313 6.77539 9.30313 6.26174C9.30313 5.7481 9.19769 5.30962 8.98682 4.94631C8.78913 4.583 8.51895 4.30738 8.17628 4.11946C7.84679 3.93154 7.47117 3.83758 7.04942 3.83758C6.62768 3.83758 6.24547 3.93154 5.9028 4.11946C5.57331 4.30738 5.30313 4.583 5.09226 4.94631C4.89456 5.30962 4.79572 5.7481 4.79572 6.26174C4.79572 6.77539 4.89456 7.21387 5.09226 7.57718C5.30313 7.94049 5.57331 8.21611 5.9028 8.40403C6.24547 8.59195 6.62768 8.68591 7.04942 8.68591ZM9.24382 15V9.64429L9.44152 6.26174L9.42175 2.89799V1.16913H13V15H9.24382Z" fill="#2C3E50"/>
<path d="M6.5 5.5L8.5 6.5L6.5 7.5V5.5Z" fill="#2C3E50"/>
</svg>
