<svg width="64" height="64" viewBox="0 0 64 64" fill="none" xmlns="http://www.w3.org/2000/svg">
<rect width="64" height="64" fill="#CBB29D"/>
<path d="M25.0346 46.094C21.1862 46.094 17.654 45.2421 14.4382 43.5383C11.2224 41.8344 8.66557 39.404 6.76771 36.247C4.92257 33.0899 4 29.3566 4 25.047C4 20.7374 4.92257 17.0291 6.76771 13.9221C8.66557 10.7651 11.2224 8.33467 14.4382 6.63087C17.654 4.87696 21.1862 4 25.0346 4C28.9358 4 32.1516 4.75168 34.682 6.25503C37.2125 7.75839 39.1104 10.0635 40.3756 13.1705C41.6409 16.2273 42.2735 20.1861 42.2735 25.047C42.2735 29.8577 41.5881 33.8166 40.2175 36.9235C38.8995 39.9803 36.9489 42.2855 34.3657 43.8389C31.8353 45.3423 28.7249 46.094 25.0346 46.094ZM28.1977 34.7436C29.8847 34.7436 31.3872 34.3678 32.7051 33.6161C34.0758 32.8644 35.1565 31.762 35.9473 30.3087C36.7908 28.8555 37.2125 27.1016 37.2125 25.047C37.2125 22.9924 36.7908 21.2385 35.9473 19.7852C35.1565 18.332 34.0758 17.2295 32.7051 16.4779C31.3872 15.7262 29.8847 15.3503 28.1977 15.3503C26.5107 15.3503 24.9819 15.7262 23.6112 16.4779C22.2932 17.2295 21.2125 18.332 20.369 19.7852C19.5783 21.2385 19.1829 22.9924 19.1829 25.047C19.1829 27.1016 19.5783 28.8555 20.369 30.3087C21.2125 31.762 22.2932 32.8644 23.6112 33.6161C24.9819 34.3678 26.5107 34.7436 28.1977 34.7436ZM36.9753 60V38.5772L37.7661 25.047L37.687 11.5919V4.67651H52V60H36.9753Z" fill="#2C3E50"/>
<path d="M26 22L34 26L26 30V22Z" fill="#2C3E50"/>
</svg>
